<?xml version="1.0" standalone="no"?>
<!DOCTYPE svg PUBLIC "-//W3C//DTD SVG 20010904//EN"
 "http://www.w3.org/TR/2001/REC-SVG-20010904/DTD/svg10.dtd">
<svg version="1.0" xmlns="http://www.w3.org/2000/svg"
 width="512.000000pt" height="512.000000pt" viewBox="0 0 512.000000 512.000000"
 preserveAspectRatio="xMidYMid meet">

<g transform="translate(0.000000,512.000000) scale(0.100000,-0.100000)"
fill="#000000" stroke="none">
<path d="M430 5110 c-216 -38 -388 -211 -420 -425 -7 -48 -10 -732 -8 -2170
l3 -2100 21 -55 c38 -100 66 -144 130 -207 75 -76 176 -127 279 -143 48 -7
732 -10 2170 -8 l2100 3 55 21 c100 38 144 66 207 130 76 75 127 176 143 279
7 48 10 732 8 2170 l-3 2100 -21 55 c-38 100 -66 144 -130 207 -73 74 -175
127 -274 143 -77 12 -4190 12 -4260 0z m2900 -1675 l0 -105 43 0 c103 -1 377
-71 377 -96 0 -15 -50 -156 -60 -167 -3 -4 -40 4 -81 18 -69 24 -217 55 -260
55 -19 0 -19 -10 -17 -236 l3 -236 105 -37 c192 -68 299 -142 343 -239 31 -68
31 -227 1 -293 -60 -128 -196 -216 -387 -249 l-67 -12 0 -134 0 -135 -77 3
-78 3 -3 126 -3 125 -118 12 c-132 13 -243 34 -296 56 l-35 15 0 104 0 104 79
-28 c84 -30 193 -53 304 -64 l67 -7 -2 241 -3 242 -73 25 c-176 59 -289 140
-339 243 -25 51 -28 66 -28 166 0 101 2 114 28 163 67 127 180 195 380 227
l37 6 0 98 c0 54 3 101 7 104 3 4 39 7 80 7 l73 0 0 -105z m-1589 -729 c36 -8
115 -34 175 -59 228 -94 341 -86 487 35 l47 39 0 -94 0 -95 -40 -35 c-78 -71
-184 -104 -300 -93 -80 7 -141 25 -290 83 -92 37 -131 46 -196 51 -73 4 -87 2
-140 -22 -32 -15 -82 -45 -111 -66 -29 -22 -55 -40 -58 -40 -3 0 -5 40 -5 89
l0 89 40 35 c98 89 230 117 391 83z"/>
<path d="M3090 3124 c-110 -30 -160 -86 -160 -181 1 -66 30 -126 77 -157 30
-20 141 -66 160 -66 1 0 3 95 3 210 0 162 -3 210 -12 209 -7 0 -38 -7 -68 -15z"/>
<path d="M3330 2239 l0 -211 33 7 c178 35 251 107 233 229 -8 51 -42 98 -89
123 -26 13 -163 63 -174 63 -2 0 -3 -95 -3 -211z"/>
</g>
</svg>
