<?xml version="1.0" encoding="UTF-8"?>
<!DOCTYPE svg PUBLIC "-//W3C//DTD SVG 1.1//EN" "http://www.w3.org/Graphics/SVG/1.1/DTD/svg11.dtd">
<svg xmlns="http://www.w3.org/2000/svg" version="1.1" width="512px" height="512px" style="shape-rendering:geometricPrecision; text-rendering:geometricPrecision; image-rendering:optimizeQuality; fill-rule:evenodd; clip-rule:evenodd" xmlns:xlink="http://www.w3.org/1999/xlink">
<g><path style="opacity:1" fill="#555555" d="M 40.5,-0.5 C 183.833,-0.5 327.167,-0.5 470.5,-0.5C 491.833,5.5 505.5,19.1667 511.5,40.5C 511.5,183.833 511.5,327.167 511.5,470.5C 505.5,491.833 491.833,505.5 470.5,511.5C 327.167,511.5 183.833,511.5 40.5,511.5C 19.1667,505.5 5.5,491.833 -0.5,470.5C -0.5,327.167 -0.5,183.833 -0.5,40.5C 5.5,19.1667 19.1667,5.5 40.5,-0.5 Z"/></g>
<g><path style="opacity:1" fill="#838383" d="M 317.5,157.5 C 317.5,164.833 317.5,172.167 317.5,179.5C 316.167,179.5 314.833,179.5 313.5,179.5C 314.209,178.596 315.209,178.263 316.5,178.5C 316.175,171.313 316.509,164.313 317.5,157.5 Z"/></g>
<g><path style="opacity:1" fill="#fdfdfd" d="M 317.5,157.5 C 322.5,157.5 327.5,157.5 332.5,157.5C 332.5,164.5 332.5,171.5 332.5,178.5C 347.393,178.674 361.393,182.007 374.5,188.5C 372.744,194.443 370.411,200.109 367.5,205.5C 356.349,200.537 344.683,197.87 332.5,197.5C 332.5,213.5 332.5,229.5 332.5,245.5C 344.945,248.481 356.611,253.314 367.5,260C 382.675,274.903 384.508,291.403 373,309.5C 362.972,319.68 350.805,325.346 336.5,326.5C 335.167,326.5 333.833,326.5 332.5,326.5C 332.5,335.5 332.5,344.5 332.5,353.5C 327.5,353.5 322.5,353.5 317.5,353.5C 317.5,345.167 317.5,336.833 317.5,328.5C 302.904,327.971 288.57,325.805 274.5,322C 273.584,321.626 272.75,321.126 272,320.5C 271.169,313.808 271.336,307.142 272.5,300.5C 286.914,306.449 301.914,309.449 317.5,309.5C 317.667,293.497 317.5,277.497 317,261.5C 302.489,258.245 289.822,251.579 279,241.5C 268.536,224.923 269.036,208.756 280.5,193C 289.9,184.635 300.9,180.135 313.5,179.5C 314.833,179.5 316.167,179.5 317.5,179.5C 317.5,172.167 317.5,164.833 317.5,157.5 Z"/></g>
<g><path style="opacity:1" fill="#585858" d="M 310.5,197.5 C 312.833,197.5 315.167,197.5 317.5,197.5C 317.5,211.5 317.5,225.5 317.5,239.5C 308.744,238.372 301.244,234.705 295,228.5C 288.515,212.135 293.682,201.802 310.5,197.5 Z"/></g>
<g><path style="opacity:1" fill="#fafafa" d="M 152.5,239.5 C 169.448,239.315 185.448,243.148 200.5,251C 217.068,256.441 231.401,252.941 243.5,240.5C 244.664,246.472 244.83,252.472 244,258.5C 230.997,271.036 215.83,274.536 198.5,269C 188.307,264.936 177.974,261.269 167.5,258C 153.309,255.514 141.475,259.681 132,270.5C 131.333,264.167 131.333,257.833 132,251.5C 137.766,245.545 144.599,241.545 152.5,239.5 Z"/></g>
<g><path style="opacity:1" fill="#575757" d="M 332.5,266.5 C 342.651,267.709 351.151,272.043 358,279.5C 362.595,293.078 358.095,301.911 344.5,306C 340.527,307.028 336.527,307.861 332.5,308.5C 332.5,294.5 332.5,280.5 332.5,266.5 Z"/></g>
<g><path style="opacity:1" fill="#797979" d="M 336.5,326.5 C 335.791,327.404 334.791,327.737 333.5,327.5C 333.5,336.5 333.5,345.5 333.5,354.5C 327.974,354.821 322.64,354.488 317.5,353.5C 322.5,353.5 327.5,353.5 332.5,353.5C 332.5,344.5 332.5,335.5 332.5,326.5C 333.833,326.5 335.167,326.5 336.5,326.5 Z"/></g>
</svg>
